<?xml version="1.0" encoding="UTF-8" standalone="no"?>
<!-- Created with Inkscape (http://www.inkscape.org/) -->

<svg
   version="1.0"
   width="64.968193"
   height="61.255413"
   id="svg2926"
   xml:space="preserve"
   sodipodi:docname="Coin_Icon.svg"
   inkscape:version="1.2.2 (732a01da63, 2022-12-09)"
   xmlns:inkscape="http://www.inkscape.org/namespaces/inkscape"
   xmlns:sodipodi="http://sodipodi.sourceforge.net/DTD/sodipodi-0.dtd"
   xmlns:xlink="http://www.w3.org/1999/xlink"
   xmlns="http://www.w3.org/2000/svg"
   xmlns:svg="http://www.w3.org/2000/svg"><g
     id="g1444"
     transform="translate(-4.3388485)"><g
       clip-path="url(#clipPath2941)"
       id="g2939"
       transform="matrix(1.25,0,0,-1.25,-0.45955857,69.998707)"><g
         transform="translate(42.8921,49.8276)"
         id="g2945"><path
           d="m 0,0 c -11.576,6.34 -26.811,3.235 -34.029,-6.934 -2.319,-3.279 -3.513,-6.889 -3.698,-10.494 -1.067,-8.079 3.067,-16.359 11.44,-20.943 11.578,-6.337 26.811,-3.232 34.02,6.931 2.328,3.28 3.521,6.895 3.706,10.5 C 12.506,-12.862 8.374,-4.585 0,0"
           id="path2947"
           style="fill:#323232;fill-opacity:1;fill-rule:nonzero;stroke:none" /></g><g
         transform="translate(42.8921,49.8276)"
         id="g2949"><path
           d="m 0,0 c -11.576,6.34 -26.811,3.235 -34.029,-6.934 -2.319,-3.279 -3.513,-6.889 -3.698,-10.494 -1.067,-8.079 3.067,-16.359 11.44,-20.943 11.578,-6.337 26.811,-3.232 34.02,6.931 2.328,3.28 3.521,6.895 3.706,10.5 C 12.506,-12.862 8.374,-4.585 0,0 Z"
           id="path2951"
           style="fill:none;stroke:#323232;stroke-width:2.324;stroke-linecap:butt;stroke-linejoin:miter;stroke-miterlimit:4;stroke-dasharray:none;stroke-opacity:1" /></g></g><g
       id="g2955"
       transform="matrix(1.25,0,0,-1.25,-0.45955857,69.998707)"><g
         id="g2961"><g
           id="g2963"><path
             d="M 9.027,44.597 C 1.808,34.428 5.35,21.046 16.925,14.712 v 0 c 11.568,-6.337 26.802,-3.232 34.02,6.931 v 0 c 7.209,10.175 3.676,23.556 -7.898,29.892 v 0 c -4.065,2.227 -8.58,3.289 -13.042,3.289 v 0 C 21.762,54.823 13.704,51.197 9.027,44.597"
             id="path2971"
             style="fill:url(#radialGradient2965);stroke:none" /></g></g></g><g
       clip-path="url(#clipPath2977)"
       id="g2975"
       transform="matrix(1.25,0,0,-1.25,-0.45955857,69.998707)"><g
         transform="translate(50.9448,21.6436)"
         id="g2981"><path
           d="m 0,0 c -7.218,-10.164 -22.452,-13.269 -34.02,-6.932 -11.575,6.334 -15.117,19.716 -7.897,29.886 7.209,10.173 22.444,13.278 34.019,6.937 C 3.676,23.555 7.209,10.174 0,0 Z"
           id="path2983"
           style="fill:none;stroke:#787878;stroke-width:2.324;stroke-linecap:butt;stroke-linejoin:miter;stroke-miterlimit:4;stroke-dasharray:none;stroke-opacity:1" /></g></g><g
       id="g2987"
       transform="matrix(1.25,0,0,-1.25,-0.45955857,69.998707)"><g
         id="g2993"><g
           id="g2995"><path
             d="m 11.986,28.063 c -0.485,-3.261 1.427,-4.936 4.086,-6.391 v 0 l 8.879,-4.859 c 2.513,-1.373 5.58,-1.926 8.12,-0.122 v 0 c 2.426,1.716 4.669,6.287 1.446,12.74 v 0 L 24.019,35.185 C 16.188,35.141 12.461,31.255 11.986,28.063"
             id="path3003"
             style="fill:url(#radialGradient2997);stroke:none" /></g></g></g><g
       clip-path="url(#clipPath3009)"
       id="g3007"
       transform="matrix(1.25,0,0,-1.25,-0.45955857,69.998707)"><g
         transform="translate(16.0718,21.6719)"
         id="g3013"><path
           d="m 0,0 8.879,-4.859 c 2.514,-1.372 5.58,-1.926 8.121,-0.121 2.425,1.715 4.667,6.286 1.445,12.739 L 7.947,13.513 C 0.116,13.47 -3.61,9.583 -4.086,6.391 -4.571,3.13 -2.659,1.455 0,0 Z"
           id="path3015"
           style="fill:none;stroke:#787878;stroke-width:0.748;stroke-linecap:round;stroke-linejoin:round;stroke-miterlimit:4;stroke-dasharray:none;stroke-opacity:1" /></g><g
         id="g3017"><g
           id="g3019" /><g
           id="g3025"><g
             clip-path="url(#clipPath3021)"
             id="g3027"
             style="opacity:0.215195"><g
               transform="translate(16.7217,22.4043)"
               id="g3029"><path
                 d="m 0,0 8.627,-4.723 c 2.212,-1.208 4.901,-1.693 7.141,-0.107 2.125,1.506 3.881,5.636 1.047,11.304 L 7.181,11.752 C 0.301,11.713 -3.183,8.424 -3.6,5.615 -4.018,2.751 -2.338,1.281 0,0 Z"
                 id="path3031"
                 style="fill:none;stroke:#ffffff;stroke-width:0.748;stroke-linecap:round;stroke-linejoin:round;stroke-miterlimit:4;stroke-dasharray:none;stroke-opacity:1" /></g></g></g></g></g><g
       id="g3035"
       transform="matrix(1.25,0,0,-1.25,-0.45955857,69.998707)"><g
         id="g3041"><g
           id="g3043"><path
             d="M 24.912,39.919 V 39.916 C 22.417,36.398 23.641,31.769 27.649,29.58 v 0 c 3.997,-2.187 9.265,-1.11 11.759,2.407 v 0 0.005 c 2.494,3.518 1.271,8.142 -2.737,10.334 v 0 c -1.401,0.766 -2.959,1.131 -4.499,1.131 v 0 c -2.851,0 -5.641,-1.253 -7.26,-3.538"
             id="path3051"
             style="fill:url(#radialGradient3045);stroke:none" /></g></g></g><path
       d="m 48.800691,30.014582 c -3.1175,4.3975 -9.70375,5.7425 -14.69875,3.00875 -5.01,-2.73625 -6.54,-8.52125 -3.42125,-12.91875 v -0.0063 c 3.1175,-4.3975 9.70125,-5.7375 14.69875,-3.0075 5.01,2.74125 6.53875,8.52125 3.42125,12.9175 z"
       id="path3063"
       style="fill:none;stroke:#787878;stroke-width:0.935;stroke-linecap:round;stroke-linejoin:round;stroke-miterlimit:4;stroke-dasharray:none;stroke-opacity:1"
       clip-path="url(#clipPath1288)" /><g
       id="g3067"
       transform="matrix(1.25,0,0,-1.25,-0.45955857,69.998707)" /><g
       id="g3073"
       transform="matrix(1.25,0,0,-1.25,-0.45955857,69.998707)"
       clip-path="url(#clipPath1273)"><g
         clip-path="url(#clipPath3069)"
         id="g3075"
         style="opacity:0.126587"><g
           transform="translate(38.5151,32.4722)"
           id="g3077"><path
             d="m 0,0 c -2.183,-3.085 -6.802,-4.025 -10.313,-2.11 -3.513,1.925 -4.59,5.983 -2.397,9.068 v 0.005 c 2.193,3.085 6.8,4.027 10.314,2.105 C 1.116,7.147 2.193,3.091 0.01,0.005 0.01,0.005 0,0.005 0,0 Z"
             id="path3079"
             style="fill:none;stroke:#ffffff;stroke-width:0.853;stroke-linecap:round;stroke-linejoin:round;stroke-miterlimit:4;stroke-dasharray:none;stroke-opacity:1" /></g></g></g><g
       id="g3083"
       transform="matrix(1.25,0,0,-1.25,-0.45955857,69.998707)" /><g
       id="g3099"
       transform="matrix(1.25,0,0,-1.25,-0.45955857,69.998707)"
       clip-path="url(#clipPath1310)"><g
         clip-path="url(#clipPath3085)"
         id="g3101"
         style="opacity:0.227844"><g
           id="g3103"><g
             id="g3105"><g
               id="g3107"><g
                 id="g3109"><path
                   d="m 13.005,24.403 c -0.756,0.97 -0.544,2.196 -0.544,2.196 2.824,2.608 6.793,3.477 6.793,3.477 0,0 -5.259,-3.673 -6.249,-5.673"
                   id="path3111"
                   style="fill:url(#linearGradient3093);stroke:none" /></g></g></g></g></g></g><g
       id="g3115"
       transform="matrix(1.25,0,0,-1.25,-0.45955857,69.998707)" /><g
       id="g3131"
       transform="matrix(1.25,0,0,-1.25,-0.45955857,69.998707)"
       clip-path="url(#clipPath1380)"><g
         clip-path="url(#clipPath3117)"
         id="g3133"
         style="opacity:0.227844"><g
           id="g3135"><g
             id="g3137"><g
               id="g3139"><g
                 id="g3141"><path
                   d="m 29.269,16.381 c 1.33,-0.141 2.551,0.644 2.551,0.644 1.309,3.409 0.243,6.849 0.243,6.849 0,0 -1.241,-5.792 -2.794,-7.493"
                   id="path3143"
                   style="fill:url(#linearGradient3125);stroke:none" /></g></g></g></g></g></g><g
       id="g3183"
       transform="matrix(1.25,0,0,-1.25,-0.45955857,69.998707)" /><g
       id="g3189"
       transform="matrix(1.25,0,0,-1.25,-0.45955857,69.998707)"
       clip-path="url(#clipPath1358)"><g
         clip-path="url(#clipPath3185)"
         id="g3191"
         style="opacity:0.300003"><g
           transform="translate(30.0166,51.5444)"
           id="g3193"><path
             d="m 0,0 v 0 c -7.317,0 -13.983,-3.24 -17.836,-8.674 -6.112,-8.622 -3.104,-20.009 6.715,-25.382 3.319,-1.825 7.142,-2.786 11.053,-2.786 7.315,0 13.982,3.239 17.833,8.673 2.959,4.169 3.891,9.106 2.62,13.911 -1.261,4.797 -4.58,8.874 -9.324,11.474 C 7.732,-0.961 3.909,0 0,0 m 0,2.179 c 4.239,0 8.518,-1.005 12.37,-3.116 10.973,-6.01 14.341,-18.742 7.501,-28.388 -4.434,-6.256 -12.11,-9.701 -19.939,-9.701 -4.231,0 -8.52,1.009 -12.373,3.115 -10.974,6.015 -14.341,18.746 -7.501,28.387 4.444,6.263 12.11,9.703 19.942,9.703"
             id="path3195"
             style="fill:#ffffff;fill-opacity:1;fill-rule:nonzero;stroke:none" /></g></g></g></g><sodipodi:namedview
     id="namedview248"
     pagecolor="#ffffff"
     bordercolor="#000000"
     borderopacity="0.25"
     inkscape:showpageshadow="2"
     inkscape:pageopacity="0.0"
     inkscape:pagecheckerboard="0"
     inkscape:deskcolor="#d1d1d1"
     showgrid="false"
     inkscape:zoom="10.168"
     inkscape:cx="57.041699"
     inkscape:cy="32.503934"
     inkscape:window-width="1920"
     inkscape:window-height="1001"
     inkscape:window-x="-9"
     inkscape:window-y="-9"
     inkscape:window-maximized="1"
     inkscape:current-layer="svg2926" /><defs
     id="defs2929"><linearGradient
       id="linearGradient4221"><stop
         id="stop4223"
         style="stop-color:#000000;stop-opacity:1"
         offset="0" /><stop
         id="stop4225"
         style="stop-color:#000000;stop-opacity:0"
         offset="1" /></linearGradient><clipPath
       id="clipPath2941"><path
         d="M 0,60 H 100 V 0 H 0 Z"
         id="path2943" /></clipPath><radialGradient
       cx="0"
       cy="0"
       r="1"
       fx="0"
       fy="0"
       id="radialGradient2965"
       gradientUnits="userSpaceOnUse"
       gradientTransform="matrix(53.138718,-29.095749,-33.115433,-46.683426,41.251465,49.520508)"
       spreadMethod="pad"><stop
         id="stop2967"
         style="stop-color:#c8c8c8;stop-opacity:1"
         offset="0" /><stop
         id="stop2969"
         style="stop-color:#f0f0e6;stop-opacity:1"
         offset="1" /></radialGradient><clipPath
       id="clipPath2977"><path
         d="M 0,60 H 100 V 0 H 0 Z"
         id="path2979" /></clipPath><radialGradient
       cx="0"
       cy="0"
       r="1"
       fx="0"
       fy="0"
       id="radialGradient2997"
       gradientUnits="userSpaceOnUse"
       gradientTransform="matrix(11.347,-6.2135773,4.8227997,6.7980347,25.595703,29.599121)"
       spreadMethod="pad"><stop
         id="stop2999"
         style="stop-color:#ffffff;stop-opacity:1"
         offset="0" /><stop
         id="stop3001"
         style="stop-color:#c8c8c8;stop-opacity:1"
         offset="1" /></radialGradient><clipPath
       id="clipPath3009"><path
         d="M 0,60 H 100 V 0 H 0 Z"
         id="path3011" /></clipPath><clipPath
       id="clipPath3021"><path
         d="M 12.6836,34.5303 H 35.3853 V 16.1943 H 12.6836 Z"
         id="path3023" /></clipPath><radialGradient
       cx="0"
       cy="0"
       r="1"
       fx="0"
       fy="0"
       id="radialGradient3045"
       gradientUnits="userSpaceOnUse"
       gradientTransform="matrix(6.0399323,-3.3072662,3.7641754,5.305954,31.693848,38.191894)"
       spreadMethod="pad"><stop
         id="stop3047"
         style="stop-color:#ffffff;stop-opacity:1"
         offset="0" /><stop
         id="stop3049"
         style="stop-color:#c8c8c8;stop-opacity:1"
         offset="1" /></radialGradient><clipPath
       id="clipPath3069"><path
         d="M 24.2422,42.9629 H 40.0811 V 28.9434 H 24.2422 Z"
         id="path3071" /></clipPath><clipPath
       id="clipPath3085"><path
         d="m 12.4336,30.0757 h 6.8208 v -5.6724 h -6.8208 z"
         id="path3087" /></clipPath><linearGradient
       x1="0"
       y1="0"
       x2="1"
       y2="0"
       id="linearGradient3093"
       gradientUnits="userSpaceOnUse"
       gradientTransform="matrix(0.997879,-1.3681335,1.3681335,0.997879,14.733398,29.153809)"
       spreadMethod="pad"><stop
         id="stop3095"
         style="stop-color:#000000;stop-opacity:1"
         offset="0" /><stop
         id="stop3097"
         style="stop-color:#000000;stop-opacity:1"
         offset="1" /></linearGradient><clipPath
       id="clipPath3117"><path
         d="m 29.2686,23.874 h 3.2036 v -7.5097 h -3.2036 z"
         id="path3119" /></clipPath><linearGradient
       x1="0"
       y1="0"
       x2="1"
       y2="0"
       id="linearGradient3125"
       gradientUnits="userSpaceOnUse"
       gradientTransform="matrix(1.3653259,0.1718445,0.1718445,-1.3653259,30.808105,20.103516)"
       spreadMethod="pad"><stop
         id="stop3127"
         style="stop-color:#000000;stop-opacity:1"
         offset="0" /><stop
         id="stop3129"
         style="stop-color:#000000;stop-opacity:1"
         offset="1" /></linearGradient><clipPath
       id="clipPath3185"><path
         d="M 6.53223,53.7231 H 53.4297 V 12.5186 H 6.53223 Z"
         id="path3187" /></clipPath><radialGradient
       cx="0"
       cy="0"
       r="1"
       fx="0"
       fy="0"
       id="radialGradient3217"
       gradientUnits="userSpaceOnUse"
       gradientTransform="matrix(62.857712,0,0,-55.226776,69.844727,51.121582)"
       spreadMethod="pad"><stop
         id="stop3219"
         style="stop-color:#99603f;stop-opacity:1"
         offset="0" /><stop
         id="stop3221"
         style="stop-color:#ecebc3;stop-opacity:1"
         offset="1" /></radialGradient><clipPath
       id="clipPath3229"><path
         d="M 0,60 H 100 V 0 H 0 Z"
         id="path3231" /></clipPath><radialGradient
       cx="0"
       cy="0"
       r="1"
       fx="0"
       fy="0"
       id="radialGradient3249"
       gradientUnits="userSpaceOnUse"
       gradientTransform="matrix(13.422577,0,0,8.0422516,68.549805,26.847656)"
       spreadMethod="pad"><stop
         id="stop3251"
         style="stop-color:#e1ebc2;stop-opacity:1"
         offset="0" /><stop
         id="stop3253"
         style="stop-color:#b88c57;stop-opacity:1"
         offset="1" /></radialGradient><clipPath
       id="clipPath3261"><path
         d="M 0,60 H 100 V 0 H 0 Z"
         id="path3263" /></clipPath><clipPath
       id="clipPath3273"><path
         d="m 57.9756,30.3193 h 24.376 V 16.2002 h -24.376 z"
         id="path3275" /></clipPath><radialGradient
       cx="0"
       cy="0"
       r="1"
       fx="0"
       fy="0"
       id="radialGradient3297"
       gradientUnits="userSpaceOnUse"
       gradientTransform="matrix(7.1416016,0,0,6.2752228,68.555664,37.012695)"
       spreadMethod="pad"><stop
         id="stop3299"
         style="stop-color:#ffebc2;stop-opacity:1"
         offset="0" /><stop
         id="stop3301"
         style="stop-color:#b88c57;stop-opacity:1"
         offset="1" /></radialGradient><clipPath
       id="clipPath3309"><path
         d="M 0,60 H 100 V 0 H 0 Z"
         id="path3311" /></clipPath><clipPath
       id="clipPath3321"><path
         d="M 62.3555,42.3574 H 78.252 V 28.2881 H 62.3555 Z"
         id="path3323" /></clipPath><clipPath
       id="clipPath3337"><path
         d="m 59.1719,24.2939 h 3.6885 v -7.7431 h -3.6885 z"
         id="path3339" /></clipPath><linearGradient
       x1="0"
       y1="0"
       x2="1"
       y2="0"
       id="linearGradient3345"
       gradientUnits="userSpaceOnUse"
       gradientTransform="matrix(1.7232971,-0.6948242,0.6948242,1.7232971,59.573242,21.366211)"
       spreadMethod="pad"><stop
         id="stop3347"
         style="stop-color:#000000;stop-opacity:1"
         offset="0" /><stop
         id="stop3349"
         style="stop-color:#000000;stop-opacity:1"
         offset="1" /></linearGradient><clipPath
       id="clipPath3369"><path
         d="m 77.5234,24.9883 h 3.9287 v -7.6904 h -3.9287 z"
         id="path3371" /></clipPath><linearGradient
       x1="0"
       y1="0"
       x2="1"
       y2="0"
       id="linearGradient3377"
       gradientUnits="userSpaceOnUse"
       gradientTransform="matrix(0.9483337,0.7708435,0.7708435,-0.9483337,78.772461,21.206055)"
       spreadMethod="pad"><stop
         id="stop3379"
         style="stop-color:#000000;stop-opacity:1"
         offset="0" /><stop
         id="stop3381"
         style="stop-color:#000000;stop-opacity:1"
         offset="1" /></linearGradient><clipPath
       id="clipPath3437"><path
         d="M 46.6196,52.5786 H 93.7061 V 11.209 H 46.6196 Z"
         id="path3439" /></clipPath><radialGradient
       cx="41.819855"
       cy="66.038605"
       r="61.810661"
       fx="41.819855"
       fy="66.038605"
       id="radialGradient4227"
       xlink:href="#linearGradient4221"
       gradientUnits="userSpaceOnUse"
       gradientTransform="matrix(0.61152413,0,0,0.48884753,12.224861,4.5127703)" /><radialGradient
       cx="41.819855"
       cy="66.038605"
       r="61.810661"
       fx="41.819855"
       fy="66.038605"
       id="radialGradient4244"
       xlink:href="#linearGradient4221"
       gradientUnits="userSpaceOnUse"
       gradientTransform="matrix(0.61152413,0,0,0.48884753,60.823209,11.696965)" /><clipPath
       clipPathUnits="userSpaceOnUse"
       id="clipPath818"><g
         id="g822"
         transform="matrix(0.8,0,0,-0.8,-83.352504,11.3359)"><path
           d="M 0,0 H 125 V 75 H 0 Z"
           id="path820"
           style="stroke-width:1.25" /></g></clipPath><clipPath
       clipPathUnits="userSpaceOnUse"
       id="clipPath824"><g
         id="g828"
         transform="matrix(0.8,0,0,-0.8,-83.352504,11.3359)"><path
           d="M 0,0 H 125 V 75 H 0 Z"
           id="path826"
           style="stroke-width:1.25" /></g></clipPath><clipPath
       clipPathUnits="userSpaceOnUse"
       id="clipPath836"><g
         id="g840"
         transform="matrix(0.8,0,0,-0.8,-47.4932,24.8296)"><path
           d="M 0,0 H 125 V 75 H 0 Z"
           id="path838"
           style="stroke-width:1.25" /></g></clipPath><clipPath
       clipPathUnits="userSpaceOnUse"
       id="clipPath842"><g
         id="g846"
         transform="matrix(0.8,0,0,-0.8,-45.7578,22.6113)"><path
           d="M 0,0 H 125 V 75 H 0 Z"
           id="path844"
           style="stroke-width:1.25" /></g></clipPath><clipPath
       clipPathUnits="userSpaceOnUse"
       id="clipPath848"><g
         id="g852"
         transform="matrix(0.8,0,0,-0.8,-45.8501,19.4175)"><path
           d="M 0,0 H 125 V 75 H 0 Z"
           id="path850"
           style="stroke-width:1.25" /></g></clipPath><clipPath
       clipPathUnits="userSpaceOnUse"
       id="clipPath854"><g
         id="g858"
         transform="matrix(0.8,0,0,-0.8,-43.7583,16.3218)"><path
           d="M 0,0 H 125 V 75 H 0 Z"
           id="path856"
           style="stroke-width:1.25" /></g></clipPath><clipPath
       clipPathUnits="userSpaceOnUse"
       id="clipPath860"><g
         id="g864"
         transform="matrix(0.8,0,0,-0.8,-40.4248,14.0518)"><path
           d="M 0,0 H 125 V 75 H 0 Z"
           id="path862"
           style="stroke-width:1.25" /></g></clipPath><clipPath
       clipPathUnits="userSpaceOnUse"
       id="clipPath866"><g
         id="g870"
         transform="matrix(0.8,0,0,-0.8,-37.085,13.854)"><path
           d="M 0,0 H 125 V 75 H 0 Z"
           id="path868"
           style="stroke-width:1.25" /></g></clipPath><clipPath
       clipPathUnits="userSpaceOnUse"
       id="clipPath872"><g
         id="g876"
         transform="matrix(0.8,0,0,-0.8,-35.6797,13.3262)"><path
           d="M 0,0 H 125 V 75 H 0 Z"
           id="path874"
           style="stroke-width:1.25" /></g></clipPath><clipPath
       clipPathUnits="userSpaceOnUse"
       id="clipPath878"><g
         id="g882"
         transform="matrix(0.8,0,0,-0.8,-31.4771,12.4604)"><path
           d="M 0,0 H 125 V 75 H 0 Z"
           id="path880"
           style="stroke-width:1.25" /></g></clipPath><clipPath
       clipPathUnits="userSpaceOnUse"
       id="clipPath884"><g
         id="g888"
         transform="matrix(0.8,0,0,-0.8,-29.9346,8.8701)"><path
           d="M 0,0 H 125 V 75 H 0 Z"
           id="path886"
           style="stroke-width:1.25" /></g></clipPath><clipPath
       clipPathUnits="userSpaceOnUse"
       id="clipPath1273"><g
         id="g1279"
         transform="matrix(0.8,0,0,-0.8,0.36764686,55.998966)"><g
           id="g1277"
           transform="translate(-0.45955857,-5.001293)"><path
             d="M 0,0 H 125 V 75 H 0 Z"
             id="path1275"
             style="stroke-width:1.25" /></g></g></clipPath><clipPath
       clipPathUnits="userSpaceOnUse"
       id="clipPath1288"><g
         id="g1294"><g
           id="g1292"
           transform="translate(-0.459559,-5.001293)"><path
             d="M 0,0 H 125 V 75 H 0 Z"
             id="path1290"
             style="stroke-width:1.25" /></g></g></clipPath><clipPath
       clipPathUnits="userSpaceOnUse"
       id="clipPath1310"><g
         id="g1316"
         transform="matrix(0.8,0,0,-0.8,0.36764686,55.998966)"><g
           id="g1314"
           transform="translate(-0.45955857,-5.001293)"><path
             d="M 0,0 H 125 V 75 H 0 Z"
             id="path1312"
             style="stroke-width:1.25" /></g></g></clipPath><clipPath
       clipPathUnits="userSpaceOnUse"
       id="clipPath1358"><g
         id="g1364"
         transform="matrix(0.8,0,0,-0.8,0.36764686,55.998966)"><g
           id="g1362"
           transform="translate(-0.45955857,-5.001293)"><path
             d="M 0,0 H 125 V 75 H 0 Z"
             id="path1360"
             style="stroke-width:1.25" /></g></g></clipPath><clipPath
       clipPathUnits="userSpaceOnUse"
       id="clipPath1380"><g
         id="g1386"
         transform="matrix(0.8,0,0,-0.8,0.36764686,55.998966)"><g
           id="g1384"
           transform="translate(-0.45955857,-5.001293)"><path
             d="M 0,0 H 125 V 75 H 0 Z"
             id="path1382"
             style="stroke-width:1.25" /></g></g></clipPath></defs></svg>
